<svg width="1301" height="287" viewBox="0 0 1301 287" fill="none" xmlns="http://www.w3.org/2000/svg">
<path d="M29.3636 95L2.27273 1.90909H27.1364L41.1818 62.9091H41.9545L58 1.90909H78.2727L94.3182 63.0455H95.0909L109.182 1.90909H134L106.955 95H85.2727L68.5 38.5455H67.7727L51 95H29.3636ZM143.295 95V1.90909H208.205V20.1818H165.795V39.2727H204.886V57.5909H165.795V76.7273H208.205V95H143.295ZM300.114 29.8182C299.811 26.4848 298.462 23.8939 296.068 22.0455C293.705 20.1667 290.326 19.2273 285.932 19.2273C283.023 19.2273 280.598 19.6061 278.659 20.3636C276.72 21.1212 275.265 22.1667 274.295 23.5C273.326 24.803 272.826 26.303 272.795 28C272.735 29.3939 273.008 30.6212 273.614 31.6818C274.25 32.7424 275.159 33.6818 276.341 34.5C277.553 35.2879 279.008 35.9848 280.705 36.5909C282.402 37.197 284.311 37.7273 286.432 38.1818L294.432 40C299.038 41 303.098 42.3333 306.614 44C310.159 45.6667 313.129 47.6515 315.523 49.9545C317.947 52.2576 319.78 54.9091 321.023 57.9091C322.265 60.9091 322.902 64.2727 322.932 68C322.902 73.8788 321.417 78.9242 318.477 83.1364C315.538 87.3485 311.311 90.5758 305.795 92.8182C300.311 95.0606 293.689 96.1818 285.932 96.1818C278.144 96.1818 271.356 95.0152 265.568 92.6818C259.78 90.3485 255.28 86.803 252.068 82.0455C248.856 77.2879 247.205 71.2727 247.114 64H268.659C268.841 67 269.644 69.5 271.068 71.5C272.492 73.5 274.447 75.0152 276.932 76.0455C279.447 77.0758 282.356 77.5909 285.659 77.5909C288.689 77.5909 291.265 77.1818 293.386 76.3636C295.538 75.5455 297.189 74.4091 298.341 72.9545C299.492 71.5 300.083 69.8333 300.114 67.9545C300.083 66.197 299.538 64.697 298.477 63.4545C297.417 62.1818 295.78 61.0909 293.568 60.1818C291.386 59.2424 288.598 58.3788 285.205 57.5909L275.477 55.3182C267.417 53.4697 261.068 50.4848 256.432 46.3636C251.795 42.2121 249.492 36.6061 249.523 29.5455C249.492 23.7879 251.038 18.7424 254.159 14.4091C257.28 10.0758 261.598 6.69697 267.114 4.27273C272.629 1.84848 278.917 0.63636 285.977 0.63636C293.189 0.63636 299.447 1.86363 304.75 4.31818C310.083 6.74242 314.22 10.1515 317.159 14.5455C320.098 18.9394 321.598 24.0303 321.659 29.8182H300.114ZM331.25 20.1818V1.90909H409.932V20.1818H381.705V95H359.523V20.1818H331.25ZM429.432 95H405.25L436.659 1.90909H466.614L498.023 95H473.841L451.977 25.3636H451.25L429.432 95ZM426.205 58.3636H476.75V75.4545H426.205V58.3636ZM587.273 1.90909V95H568.182L531.136 41.2727H530.545V95H508.045V1.90909H527.409L564.045 55.5455H564.818V1.90909H587.273Z" fill="black"/>
<path d="M231.196 286V256.909H249.435V260.688H235.585V269.551H248.483V273.315H235.585V282.222H249.605V286H231.196ZM260.994 286L252.925 256.909H257.542L263.21 279.438H263.479L269.374 256.909H273.948L279.843 279.452H280.113L285.766 256.909H290.397L282.315 286H277.897L271.775 264.21H271.548L265.425 286H260.994ZM294.399 286V256.909H298.788V269.551H313.291V256.909H317.695V286H313.291V273.315H298.788V286H294.399ZM326.544 286H321.885L332.354 256.909H337.425L347.893 286H343.234L335.01 262.193H334.783L326.544 286ZM327.325 274.608H342.439V278.301H327.325V274.608ZM375.195 269.608V273.301H362.297V269.608H375.195ZM415.944 266.369H411.512C411.342 265.422 411.024 264.589 410.56 263.869C410.096 263.15 409.528 262.539 408.856 262.037C408.183 261.535 407.431 261.156 406.597 260.901C405.773 260.645 404.897 260.517 403.969 260.517C402.293 260.517 400.792 260.938 399.467 261.781C398.15 262.624 397.109 263.86 396.342 265.489C395.584 267.117 395.205 269.106 395.205 271.455C395.205 273.822 395.584 275.82 396.342 277.449C397.109 279.078 398.155 280.309 399.481 281.142C400.807 281.975 402.298 282.392 403.955 282.392C404.874 282.392 405.745 282.269 406.569 282.023C407.402 281.767 408.155 281.393 408.827 280.901C409.5 280.408 410.068 279.807 410.532 279.097C411.005 278.377 411.332 277.553 411.512 276.625L415.944 276.639C415.707 278.069 415.248 279.385 414.566 280.588C413.894 281.781 413.027 282.813 411.967 283.685C410.915 284.546 409.713 285.214 408.359 285.688C407.004 286.161 405.527 286.398 403.927 286.398C401.408 286.398 399.164 285.801 397.194 284.608C395.224 283.405 393.671 281.687 392.535 279.452C391.408 277.217 390.844 274.551 390.844 271.455C390.844 268.348 391.413 265.683 392.549 263.457C393.685 261.223 395.238 259.509 397.208 258.315C399.178 257.113 401.417 256.511 403.927 256.511C405.47 256.511 406.91 256.734 408.245 257.179C409.59 257.615 410.797 258.259 411.867 259.111C412.937 259.954 413.823 260.986 414.523 262.207C415.224 263.42 415.698 264.807 415.944 266.369ZM446.466 271.455C446.466 274.561 445.898 277.231 444.761 279.466C443.625 281.691 442.067 283.405 440.088 284.608C438.118 285.801 435.879 286.398 433.369 286.398C430.85 286.398 428.601 285.801 426.622 284.608C424.652 283.405 423.099 281.687 421.963 279.452C420.827 277.217 420.259 274.551 420.259 271.455C420.259 268.348 420.827 265.683 421.963 263.457C423.099 261.223 424.652 259.509 426.622 258.315C428.601 257.113 430.85 256.511 433.369 256.511C435.879 256.511 438.118 257.113 440.088 258.315C442.067 259.509 443.625 261.223 444.761 263.457C445.898 265.683 446.466 268.348 446.466 271.455ZM442.119 271.455C442.119 269.087 441.736 267.094 440.969 265.474C440.211 263.846 439.17 262.615 437.844 261.781C436.527 260.938 435.036 260.517 433.369 260.517C431.693 260.517 430.197 260.938 428.881 261.781C427.564 262.615 426.523 263.846 425.756 265.474C424.998 267.094 424.619 269.087 424.619 271.455C424.619 273.822 424.998 275.82 425.756 277.449C426.523 279.068 427.564 280.299 428.881 281.142C430.197 281.975 431.693 282.392 433.369 282.392C435.036 282.392 436.527 281.975 437.844 281.142C439.17 280.299 440.211 279.068 440.969 277.449C441.736 275.82 442.119 273.822 442.119 271.455ZM475.418 256.909V286H471.384L456.597 264.665H456.327V286H451.938V256.909H456.001L470.802 278.273H471.072V256.909H475.418ZM480.386 260.688V256.909H502.901V260.688H493.824V286H489.449V260.688H480.386ZM507.876 286V256.909H518.245C520.499 256.909 522.369 257.297 523.856 258.074C525.352 258.85 526.469 259.925 527.208 261.298C527.947 262.662 528.316 264.239 528.316 266.028C528.316 267.809 527.942 269.376 527.194 270.73C526.455 272.075 525.338 273.121 523.842 273.869C522.355 274.617 520.485 274.991 518.231 274.991H510.376V271.213H517.833C519.254 271.213 520.409 271.009 521.299 270.602C522.199 270.195 522.857 269.603 523.273 268.827C523.69 268.05 523.898 267.117 523.898 266.028C523.898 264.93 523.685 263.978 523.259 263.173C522.843 262.368 522.184 261.753 521.285 261.327C520.395 260.891 519.225 260.673 517.776 260.673H512.265V286H507.876ZM522.237 272.875L529.424 286H524.424L517.379 272.875H522.237ZM558.927 271.455C558.927 274.561 558.359 277.231 557.222 279.466C556.086 281.691 554.528 283.405 552.549 284.608C550.579 285.801 548.34 286.398 545.83 286.398C543.311 286.398 541.062 285.801 539.083 284.608C537.113 283.405 535.56 281.687 534.424 279.452C533.288 277.217 532.719 274.551 532.719 271.455C532.719 268.348 533.288 265.683 534.424 263.457C535.56 261.223 537.113 259.509 539.083 258.315C541.062 257.113 543.311 256.511 545.83 256.511C548.34 256.511 550.579 257.113 552.549 258.315C554.528 259.509 556.086 261.223 557.222 263.457C558.359 265.683 558.927 268.348 558.927 271.455ZM554.58 271.455C554.58 269.087 554.197 267.094 553.43 265.474C552.672 263.846 551.63 262.615 550.305 261.781C548.988 260.938 547.497 260.517 545.83 260.517C544.154 260.517 542.658 260.938 541.342 261.781C540.025 262.615 538.984 263.846 538.217 265.474C537.459 267.094 537.08 269.087 537.08 271.455C537.08 273.822 537.459 275.82 538.217 277.449C538.984 279.068 540.025 280.299 541.342 281.142C542.658 281.975 544.154 282.392 545.83 282.392C547.497 282.392 548.988 281.975 550.305 281.142C551.63 280.299 552.672 279.068 553.43 277.449C554.197 275.82 554.58 273.822 554.58 271.455ZM564.399 286V256.909H568.788V282.222H581.97V286H564.399ZM622.833 271.455C622.833 274.561 622.265 277.231 621.129 279.466C619.992 281.691 618.434 283.405 616.455 284.608C614.486 285.801 612.246 286.398 609.737 286.398C607.218 286.398 604.969 285.801 602.989 284.608C601.02 283.405 599.467 281.687 598.33 279.452C597.194 277.217 596.626 274.551 596.626 271.455C596.626 268.348 597.194 265.683 598.33 263.457C599.467 261.223 601.02 259.509 602.989 258.315C604.969 257.113 607.218 256.511 609.737 256.511C612.246 256.511 614.486 257.113 616.455 258.315C618.434 259.509 619.992 261.223 621.129 263.457C622.265 265.683 622.833 268.348 622.833 271.455ZM618.487 271.455C618.487 269.087 618.103 267.094 617.336 265.474C616.578 263.846 615.537 262.615 614.211 261.781C612.895 260.938 611.403 260.517 609.737 260.517C608.06 260.517 606.564 260.938 605.248 261.781C603.932 262.615 602.89 263.846 602.123 265.474C601.365 267.094 600.987 269.087 600.987 271.455C600.987 273.822 601.365 275.82 602.123 277.449C602.89 279.068 603.932 280.299 605.248 281.142C606.564 281.975 608.06 282.392 609.737 282.392C611.403 282.392 612.895 281.975 614.211 281.142C615.537 280.299 616.578 279.068 617.336 277.449C618.103 275.82 618.487 273.822 618.487 271.455ZM628.305 286V256.909H646.345V260.688H632.695V269.551H645.053V273.315H632.695V286H628.305ZM662.329 286V256.909H672.698C674.961 256.909 676.836 257.321 678.323 258.145C679.81 258.969 680.923 260.096 681.661 261.526C682.4 262.946 682.769 264.546 682.769 266.327C682.769 268.116 682.395 269.726 681.647 271.156C680.908 272.577 679.791 273.704 678.295 274.537C676.808 275.361 674.938 275.773 672.684 275.773H665.553V272.051H672.286C673.716 272.051 674.876 271.805 675.766 271.312C676.656 270.811 677.31 270.129 677.727 269.267C678.143 268.405 678.352 267.425 678.352 266.327C678.352 265.228 678.143 264.253 677.727 263.401C677.31 262.548 676.652 261.881 675.752 261.398C674.862 260.915 673.688 260.673 672.229 260.673H666.718V286H662.329ZM687.915 286V256.909H698.284C700.538 256.909 702.408 257.297 703.895 258.074C705.391 258.85 706.509 259.925 707.247 261.298C707.986 262.662 708.355 264.239 708.355 266.028C708.355 267.809 707.981 269.376 707.233 270.73C706.494 272.075 705.377 273.121 703.881 273.869C702.394 274.617 700.524 274.991 698.27 274.991H690.415V271.213H697.872C699.293 271.213 700.448 271.009 701.338 270.602C702.238 270.195 702.896 269.603 703.312 268.827C703.729 268.05 703.938 267.117 703.938 266.028C703.938 264.93 703.724 263.978 703.298 263.173C702.882 262.368 702.223 261.753 701.324 261.327C700.434 260.891 699.264 260.673 697.815 260.673H692.304V286H687.915ZM702.276 272.875L709.463 286H704.463L697.418 272.875H702.276ZM738.966 271.455C738.966 274.561 738.398 277.231 737.261 279.466C736.125 281.691 734.567 283.405 732.588 284.608C730.618 285.801 728.379 286.398 725.869 286.398C723.35 286.398 721.101 285.801 719.122 284.608C717.152 283.405 715.599 281.687 714.463 279.452C713.327 277.217 712.759 274.551 712.759 271.455C712.759 268.348 713.327 265.683 714.463 263.457C715.599 261.223 717.152 259.509 719.122 258.315C721.101 257.113 723.35 256.511 725.869 256.511C728.379 256.511 730.618 257.113 732.588 258.315C734.567 259.509 736.125 261.223 737.261 263.457C738.398 265.683 738.966 268.348 738.966 271.455ZM734.619 271.455C734.619 269.087 734.236 267.094 733.469 265.474C732.711 263.846 731.67 262.615 730.344 261.781C729.027 260.938 727.536 260.517 725.869 260.517C724.193 260.517 722.697 260.938 721.381 261.781C720.064 262.615 719.023 263.846 718.256 265.474C717.498 267.094 717.119 269.087 717.119 271.455C717.119 273.822 717.498 275.82 718.256 277.449C719.023 279.068 720.064 280.299 721.381 281.142C722.697 281.975 724.193 282.392 725.869 282.392C727.536 282.392 729.027 281.975 730.344 281.142C731.67 280.299 732.711 279.068 733.469 277.449C734.236 275.82 734.619 273.822 734.619 271.455ZM764.126 266.099C763.851 265.238 763.482 264.466 763.018 263.784C762.563 263.093 762.019 262.506 761.384 262.023C760.75 261.53 760.025 261.156 759.211 260.901C758.406 260.645 757.521 260.517 756.555 260.517C754.916 260.517 753.439 260.938 752.123 261.781C750.807 262.624 749.765 263.86 748.998 265.489C748.24 267.108 747.862 269.092 747.862 271.44C747.862 273.798 748.245 275.792 749.012 277.42C749.779 279.049 750.83 280.285 752.165 281.128C753.501 281.971 755.021 282.392 756.725 282.392C758.307 282.392 759.684 282.07 760.859 281.426C762.042 280.782 762.956 279.873 763.6 278.699C764.254 277.515 764.58 276.123 764.58 274.523L765.717 274.736H757.393V271.114H768.827V274.423C768.827 276.866 768.307 278.988 767.265 280.787C766.233 282.577 764.803 283.959 762.975 284.935C761.157 285.91 759.074 286.398 756.725 286.398C754.093 286.398 751.782 285.792 749.793 284.58C747.814 283.367 746.271 281.649 745.163 279.423C744.055 277.188 743.501 274.537 743.501 271.469C743.501 269.149 743.823 267.065 744.467 265.219C745.111 263.372 746.015 261.805 747.18 260.517C748.354 259.22 749.732 258.23 751.313 257.548C752.904 256.857 754.642 256.511 756.526 256.511C758.098 256.511 759.561 256.743 760.915 257.207C762.279 257.671 763.491 258.33 764.552 259.182C765.622 260.034 766.507 261.047 767.208 262.222C767.909 263.386 768.382 264.679 768.629 266.099H764.126ZM774.399 286V256.909H784.768C787.022 256.909 788.893 257.297 790.379 258.074C791.875 258.85 792.993 259.925 793.732 261.298C794.47 262.662 794.839 264.239 794.839 266.028C794.839 267.809 794.465 269.376 793.717 270.73C792.979 272.075 791.861 273.121 790.365 273.869C788.878 274.617 787.008 274.991 784.754 274.991H776.899V271.213H784.357C785.777 271.213 786.932 271.009 787.822 270.602C788.722 270.195 789.38 269.603 789.797 268.827C790.214 268.05 790.422 267.117 790.422 266.028C790.422 264.93 790.209 263.978 789.783 263.173C789.366 262.368 788.708 261.753 787.808 261.327C786.918 260.891 785.749 260.673 784.3 260.673H778.788V286H774.399ZM788.76 272.875L795.947 286H790.947L783.902 272.875H788.76ZM802.638 286H797.979L808.447 256.909H813.518L823.987 286H819.328L811.104 262.193H810.876L802.638 286ZM803.419 274.608H818.533V278.301H803.419V274.608ZM828.188 256.909H833.515L842.776 279.523H843.117L852.379 256.909H857.705V286H853.529V264.949H853.259L844.68 285.957H841.214L832.634 264.935H832.364V286H828.188V256.909ZM890.539 264.551C890.388 263.206 889.763 262.165 888.664 261.426C887.566 260.678 886.183 260.304 884.516 260.304C883.323 260.304 882.291 260.493 881.42 260.872C880.549 261.241 879.871 261.753 879.388 262.406C878.915 263.05 878.678 263.784 878.678 264.608C878.678 265.299 878.839 265.896 879.161 266.398C879.493 266.9 879.924 267.321 880.454 267.662C880.994 267.993 881.571 268.273 882.187 268.5C882.802 268.718 883.394 268.898 883.962 269.04L886.803 269.778C887.731 270.006 888.683 270.313 889.658 270.702C890.634 271.09 891.538 271.601 892.371 272.236C893.205 272.87 893.877 273.656 894.388 274.594C894.909 275.531 895.17 276.653 895.17 277.96C895.17 279.608 894.744 281.071 893.891 282.349C893.049 283.628 891.822 284.636 890.212 285.375C888.612 286.114 886.675 286.483 884.403 286.483C882.225 286.483 880.34 286.137 878.749 285.446C877.158 284.755 875.913 283.775 875.013 282.506C874.114 281.227 873.617 279.712 873.522 277.96H877.925C878.011 279.011 878.352 279.887 878.948 280.588C879.554 281.279 880.326 281.795 881.263 282.136C882.21 282.468 883.247 282.634 884.374 282.634C885.615 282.634 886.718 282.439 887.684 282.051C888.659 281.653 889.426 281.104 889.985 280.403C890.544 279.693 890.823 278.865 890.823 277.918C890.823 277.056 890.577 276.35 890.085 275.801C889.602 275.252 888.943 274.797 888.11 274.438C887.286 274.078 886.353 273.76 885.312 273.486L881.874 272.548C879.545 271.914 877.698 270.981 876.335 269.75C874.98 268.519 874.303 266.89 874.303 264.864C874.303 263.187 874.758 261.724 875.667 260.474C876.576 259.224 877.807 258.254 879.36 257.562C880.913 256.862 882.665 256.511 884.616 256.511C886.585 256.511 888.323 256.857 889.829 257.548C891.344 258.24 892.537 259.191 893.408 260.403C894.28 261.606 894.734 262.989 894.772 264.551H890.539ZM900.415 286V256.909H918.653V260.688H904.804V269.551H917.702V273.315H904.804V282.222H918.824V286H900.415ZM948.678 266.369H944.246C944.076 265.422 943.759 264.589 943.295 263.869C942.831 263.15 942.263 262.539 941.59 262.037C940.918 261.535 940.165 261.156 939.332 260.901C938.508 260.645 937.632 260.517 936.704 260.517C935.028 260.517 933.527 260.938 932.201 261.781C930.885 262.624 929.843 263.86 929.076 265.489C928.318 267.117 927.94 269.106 927.94 271.455C927.94 273.822 928.318 275.82 929.076 277.449C929.843 279.078 930.889 280.309 932.215 281.142C933.541 281.975 935.032 282.392 936.69 282.392C937.608 282.392 938.479 282.269 939.303 282.023C940.137 281.767 940.889 281.393 941.562 280.901C942.234 280.408 942.802 279.807 943.266 279.097C943.74 278.377 944.067 277.553 944.246 276.625L948.678 276.639C948.442 278.069 947.982 279.385 947.3 280.588C946.628 281.781 945.762 282.813 944.701 283.685C943.65 284.546 942.447 285.214 941.093 285.688C939.739 286.161 938.262 286.398 936.661 286.398C934.142 286.398 931.898 285.801 929.928 284.608C927.959 283.405 926.406 281.687 925.269 279.452C924.142 277.217 923.579 274.551 923.579 271.455C923.579 268.348 924.147 265.683 925.283 263.457C926.42 261.223 927.973 259.509 929.942 258.315C931.912 257.113 934.152 256.511 936.661 256.511C938.205 256.511 939.644 256.734 940.979 257.179C942.324 257.615 943.531 258.259 944.602 259.111C945.672 259.954 946.557 260.986 947.258 262.207C947.959 263.42 948.432 264.807 948.678 266.369ZM972.638 256.909H977.041V276.043C977.041 278.079 976.563 279.883 975.607 281.455C974.65 283.017 973.305 284.248 971.572 285.148C969.839 286.038 967.808 286.483 965.479 286.483C963.159 286.483 961.132 286.038 959.399 285.148C957.666 284.248 956.321 283.017 955.365 281.455C954.409 279.883 953.93 278.079 953.93 276.043V256.909H958.32V275.688C958.32 277.004 958.608 278.173 959.186 279.196C959.773 280.219 960.602 281.024 961.672 281.611C962.742 282.188 964.011 282.477 965.479 282.477C966.956 282.477 968.23 282.188 969.3 281.611C970.379 281.024 971.203 280.219 971.771 279.196C972.349 278.173 972.638 277.004 972.638 275.688V256.909ZM983.423 286V256.909H993.792C996.046 256.909 997.916 257.297 999.403 258.074C1000.9 258.85 1002.02 259.925 1002.75 261.298C1003.49 262.662 1003.86 264.239 1003.86 266.028C1003.86 267.809 1003.49 269.376 1002.74 270.73C1002 272.075 1000.88 273.121 999.388 273.869C997.902 274.617 996.031 274.991 993.778 274.991H985.923V271.213H993.38C994.8 271.213 995.956 271.009 996.846 270.602C997.746 270.195 998.404 269.603 998.82 268.827C999.237 268.05 999.445 267.117 999.445 266.028C999.445 264.93 999.232 263.978 998.806 263.173C998.389 262.368 997.731 261.753 996.832 261.327C995.942 260.891 994.772 260.673 993.323 260.673H987.812V286H983.423ZM997.783 272.875L1004.97 286H999.971L992.925 272.875H997.783ZM1013.59 256.909V286H1009.2V256.909H1013.59ZM1018.55 260.688V256.909H1041.06V260.688H1031.99V286H1027.61V260.688H1018.55ZM1043.8 256.909H1048.78L1056.38 270.134H1056.69L1064.29 256.909H1069.28L1058.72 274.58V286H1054.35V274.58L1043.8 256.909Z" fill="#A9A7A3"/>
<path d="M236.545 156.636H213.818C213.515 154.303 212.894 152.197 211.955 150.318C211.015 148.439 209.773 146.833 208.227 145.5C206.682 144.167 204.848 143.152 202.727 142.455C200.636 141.727 198.318 141.364 195.773 141.364C191.258 141.364 187.364 142.47 184.091 144.682C180.848 146.894 178.348 150.091 176.591 154.273C174.864 158.455 174 163.515 174 169.455C174 175.636 174.879 180.818 176.636 185C178.424 189.152 180.924 192.288 184.136 194.409C187.379 196.5 191.212 197.545 195.636 197.545C198.121 197.545 200.379 197.227 202.409 196.591C204.47 195.955 206.273 195.03 207.818 193.818C209.394 192.576 210.682 191.076 211.682 189.318C212.712 187.53 213.424 185.515 213.818 183.273L236.545 183.409C236.152 187.53 234.955 191.591 232.955 195.591C230.985 199.591 228.273 203.242 224.818 206.545C221.364 209.818 217.152 212.424 212.182 214.364C207.242 216.303 201.576 217.273 195.182 217.273C186.758 217.273 179.212 215.424 172.545 211.727C165.909 208 160.667 202.576 156.818 195.455C152.97 188.333 151.045 179.667 151.045 169.455C151.045 159.212 153 150.53 156.909 143.409C160.818 136.288 166.106 130.879 172.773 127.182C179.439 123.485 186.909 121.636 195.182 121.636C200.818 121.636 206.03 122.424 210.818 124C215.606 125.545 219.818 127.818 223.455 130.818C227.091 133.788 230.045 137.439 232.318 141.773C234.591 146.106 236 151.061 236.545 156.636ZM244.784 122.909H269.92L289.602 161.864H290.42L310.102 122.909H335.239L301.193 184.909V216H278.83V184.909L244.784 122.909ZM344.67 216V122.909H383.489C390.458 122.909 396.292 123.894 400.989 125.864C405.716 127.833 409.261 130.591 411.625 134.136C414.019 137.682 415.216 141.788 415.216 146.455C415.216 150 414.473 153.167 412.989 155.955C411.504 158.712 409.458 161 406.852 162.818C404.246 164.636 401.231 165.909 397.807 166.636V167.545C401.564 167.727 405.034 168.742 408.216 170.591C411.428 172.439 414.004 175.015 415.943 178.318C417.883 181.591 418.852 185.47 418.852 189.955C418.852 194.955 417.58 199.424 415.034 203.364C412.489 207.273 408.807 210.364 403.989 212.636C399.17 214.879 393.322 216 386.443 216H344.67ZM367.17 197.864H381.08C385.958 197.864 389.549 196.939 391.852 195.091C394.186 193.242 395.352 190.667 395.352 187.364C395.352 184.97 394.792 182.909 393.67 181.182C392.549 179.424 390.958 178.076 388.898 177.136C386.837 176.167 384.367 175.682 381.489 175.682H367.17V197.864ZM367.17 161.182H379.625C382.08 161.182 384.261 160.773 386.17 159.955C388.08 159.136 389.564 157.955 390.625 156.409C391.716 154.864 392.261 153 392.261 150.818C392.261 147.697 391.155 145.242 388.943 143.455C386.731 141.667 383.746 140.773 379.989 140.773H367.17V161.182ZM429.67 216V122.909H494.58V141.182H452.17V160.273H491.261V178.591H452.17V197.727H494.58V216H429.67ZM508.67 216V122.909H547.125C554.095 122.909 560.11 124.167 565.17 126.682C570.261 129.167 574.186 132.742 576.943 137.409C579.701 142.045 581.08 147.545 581.08 153.909C581.08 160.364 579.67 165.848 576.852 170.364C574.034 174.848 570.034 178.273 564.852 180.636C559.67 182.97 553.534 184.136 546.443 184.136H522.125V166.409H542.261C545.655 166.409 548.489 165.97 550.761 165.091C553.064 164.182 554.807 162.818 555.989 161C557.17 159.152 557.761 156.788 557.761 153.909C557.761 151.03 557.17 148.652 555.989 146.773C554.807 144.864 553.064 143.439 550.761 142.5C548.458 141.53 545.625 141.045 542.261 141.045H531.17V216H508.67ZM561.08 173.455L584.261 216H559.716L536.989 173.455H561.08ZM671.239 150.818C670.936 147.485 669.587 144.894 667.193 143.045C664.83 141.167 661.451 140.227 657.057 140.227C654.148 140.227 651.723 140.606 649.784 141.364C647.845 142.121 646.39 143.167 645.42 144.5C644.451 145.803 643.951 147.303 643.92 149C643.86 150.394 644.133 151.621 644.739 152.682C645.375 153.742 646.284 154.682 647.466 155.5C648.678 156.288 650.133 156.985 651.83 157.591C653.527 158.197 655.436 158.727 657.557 159.182L665.557 161C670.163 162 674.223 163.333 677.739 165C681.284 166.667 684.254 168.652 686.648 170.955C689.072 173.258 690.905 175.909 692.148 178.909C693.39 181.909 694.027 185.273 694.057 189C694.027 194.879 692.542 199.924 689.602 204.136C686.663 208.348 682.436 211.576 676.92 213.818C671.436 216.061 664.814 217.182 657.057 217.182C649.269 217.182 642.481 216.015 636.693 213.682C630.905 211.348 626.405 207.803 623.193 203.045C619.981 198.288 618.33 192.273 618.239 185H639.784C639.966 188 640.769 190.5 642.193 192.5C643.617 194.5 645.572 196.015 648.057 197.045C650.572 198.076 653.481 198.591 656.784 198.591C659.814 198.591 662.39 198.182 664.511 197.364C666.663 196.545 668.314 195.409 669.466 193.955C670.617 192.5 671.208 190.833 671.239 188.955C671.208 187.197 670.663 185.697 669.602 184.455C668.542 183.182 666.905 182.091 664.693 181.182C662.511 180.242 659.723 179.379 656.33 178.591L646.602 176.318C638.542 174.47 632.193 171.485 627.557 167.364C622.92 163.212 620.617 157.606 620.648 150.545C620.617 144.788 622.163 139.742 625.284 135.409C628.405 131.076 632.723 127.697 638.239 125.273C643.754 122.848 650.042 121.636 657.102 121.636C664.314 121.636 670.572 122.864 675.875 125.318C681.208 127.742 685.345 131.152 688.284 135.545C691.223 139.939 692.723 145.03 692.784 150.818H671.239ZM705.42 216V122.909H770.33V141.182H727.92V160.273H767.011V178.591H727.92V197.727H770.33V216H705.42ZM868.92 156.636H846.193C845.89 154.303 845.269 152.197 844.33 150.318C843.39 148.439 842.148 146.833 840.602 145.5C839.057 144.167 837.223 143.152 835.102 142.455C833.011 141.727 830.693 141.364 828.148 141.364C823.633 141.364 819.739 142.47 816.466 144.682C813.223 146.894 810.723 150.091 808.966 154.273C807.239 158.455 806.375 163.515 806.375 169.455C806.375 175.636 807.254 180.818 809.011 185C810.799 189.152 813.299 192.288 816.511 194.409C819.754 196.5 823.587 197.545 828.011 197.545C830.496 197.545 832.754 197.227 834.784 196.591C836.845 195.955 838.648 195.03 840.193 193.818C841.769 192.576 843.057 191.076 844.057 189.318C845.087 187.53 845.799 185.515 846.193 183.273L868.92 183.409C868.527 187.53 867.33 191.591 865.33 195.591C863.36 199.591 860.648 203.242 857.193 206.545C853.739 209.818 849.527 212.424 844.557 214.364C839.617 216.303 833.951 217.273 827.557 217.273C819.133 217.273 811.587 215.424 804.92 211.727C798.284 208 793.042 202.576 789.193 195.455C785.345 188.333 783.42 179.667 783.42 169.455C783.42 159.212 785.375 150.53 789.284 143.409C793.193 136.288 798.481 130.879 805.148 127.182C811.814 123.485 819.284 121.636 827.557 121.636C833.193 121.636 838.405 122.424 843.193 124C847.981 125.545 852.193 127.818 855.83 130.818C859.466 133.788 862.42 137.439 864.693 141.773C866.966 146.106 868.375 151.061 868.92 156.636ZM938.114 122.909H960.568V182.955C960.568 189.894 958.917 195.939 955.614 201.091C952.311 206.212 947.705 210.182 941.795 213C935.886 215.788 929.023 217.182 921.205 217.182C913.295 217.182 906.386 215.788 900.477 213C894.568 210.182 889.977 206.212 886.705 201.091C883.432 195.939 881.795 189.894 881.795 182.955V122.909H904.295V181C904.295 184.212 904.992 187.076 906.386 189.591C907.811 192.106 909.795 194.076 912.341 195.5C914.886 196.924 917.841 197.636 921.205 197.636C924.568 197.636 927.508 196.924 930.023 195.5C932.568 194.076 934.553 192.106 935.977 189.591C937.402 187.076 938.114 184.212 938.114 181V122.909ZM974.67 216V122.909H1013.12C1020.09 122.909 1026.11 124.167 1031.17 126.682C1036.26 129.167 1040.19 132.742 1042.94 137.409C1045.7 142.045 1047.08 147.545 1047.08 153.909C1047.08 160.364 1045.67 165.848 1042.85 170.364C1040.03 174.848 1036.03 178.273 1030.85 180.636C1025.67 182.97 1019.53 184.136 1012.44 184.136H988.125V166.409H1008.26C1011.66 166.409 1014.49 165.97 1016.76 165.091C1019.06 164.182 1020.81 162.818 1021.99 161C1023.17 159.152 1023.76 156.788 1023.76 153.909C1023.76 151.03 1023.17 148.652 1021.99 146.773C1020.81 144.864 1019.06 143.439 1016.76 142.5C1014.46 141.53 1011.63 141.045 1008.26 141.045H997.17V216H974.67ZM1027.08 173.455L1050.26 216H1025.72L1002.99 173.455H1027.08ZM1081.92 122.909V216H1059.42V122.909H1081.92ZM1093 141.182V122.909H1171.68V141.182H1143.45V216H1121.27V141.182H1093ZM1178.03 122.909H1203.17L1222.85 161.864H1223.67L1243.35 122.909H1268.49L1234.44 184.909V216H1212.08V184.909L1178.03 122.909ZM1280.17 217.318C1276.9 217.318 1274.09 216.167 1271.76 213.864C1269.46 211.561 1268.32 208.773 1268.35 205.5C1268.32 202.288 1269.46 199.545 1271.76 197.273C1274.09 194.97 1276.9 193.818 1280.17 193.818C1283.26 193.818 1285.99 194.97 1288.35 197.273C1290.75 199.545 1291.96 202.288 1291.99 205.5C1291.96 207.682 1291.38 209.667 1290.26 211.455C1289.17 213.242 1287.73 214.667 1285.94 215.727C1284.19 216.788 1282.26 217.318 1280.17 217.318Z" fill="#3399FF"/>
<line x1="610.047" y1="50.5001" x2="1300.05" y2="53.5989" stroke="black" stroke-width="21"/>
<line y1="168.5" x2="124" y2="168.5" stroke="#3399FF" stroke-width="21"/>
</svg>
